<svg xmlns="http://www.w3.org/2000/svg" viewBox="0 0 1280 720" role="img" aria-labelledby="title desc">
  <title id="title">Huntrix deployment and local setup architecture</title>
  <desc id="desc">The repository can run locally with Docker, optionally start self-hosted InstantDB, deploy the dashboard to Vercel, and run the Discord bot against the same backend URL.</desc>
  <defs>
    <marker id="arrow" markerWidth="12" markerHeight="12" refX="10" refY="4" orient="auto" markerUnits="strokeWidth">
      <path d="M0,0 L0,8 L11,4 z" fill="#111827"/>
    </marker>
    <style>
      .bg{fill:#f8fafc}.box{fill:#fff;stroke:#cbd5e1;stroke-width:2}.docker{fill:#eff6ff;stroke:#2563eb;stroke-width:2}.runtime{fill:#ecfdf5;stroke:#059669;stroke-width:2}.svc{fill:#f5f3ff;stroke:#7c3aed;stroke-width:2}.title{font:700 28px system-ui,sans-serif;fill:#0f172a}.h{font:700 17px system-ui,sans-serif;fill:#0f172a}.b{font:500 14px system-ui,sans-serif;fill:#475569}.s{font:700 12px system-ui,sans-serif;fill:#334155;letter-spacing:.03em}.line{stroke:#111827;stroke-width:3;fill:none;marker-end:url(#arrow)}
    </style>
  </defs>
  <rect class="bg" width="1280" height="720" rx="30"/>
  <text x="60" y="74" class="title">Deployment And Local Setup</text>
  <text x="60" y="104" class="b">One repository supports local Docker review, Vercel dashboard deployment, and Discord bot testing.</text>

  <rect class="box" x="70" y="250" width="210" height="100" rx="18"/>
  <text x="105" y="289" class="h">GitHub repo</text><text x="105" y="318" class="b">Techathon2026-Huntrix</text>

  <rect class="docker" x="380" y="130" width="245" height="120" rx="18"/>
  <text x="420" y="174" class="h">Docker local app</text><text x="420" y="203" class="b">Next.js on :3000</text><text x="420" y="228" class="b">/api/state included</text>
  <rect class="docker" x="380" y="360" width="245" height="120" rx="18"/>
  <text x="420" y="404" class="h">Self-host InstantDB</text><text x="420" y="433" class="b">backend :8888</text><text x="420" y="458" class="b">dashboard :3001</text>

  <rect class="runtime" x="730" y="130" width="220" height="120" rx="18"/>
  <text x="765" y="174" class="h">Vercel dashboard</text><text x="765" y="203" class="b">root directory dashboard/</text><text x="765" y="228" class="b">build: bun run build</text>
  <rect class="runtime" x="730" y="360" width="220" height="120" rx="18"/>
  <text x="765" y="404" class="h">Discord bot</text><text x="765" y="433" class="b">BACKEND_URL points to app</text><text x="765" y="458" class="b">optional alert channel</text>

  <rect class="svc" x="1055" y="245" width="165" height="100" rx="18"/>
  <text x="1088" y="284" class="h">Services</text><text x="1088" y="313" class="b">Discord</text><text x="1088" y="336" class="b">OpenRouter</text>

  <path class="line" d="M280 285 C325 210 340 190 365 190"/>
  <path class="line" d="M280 315 C325 395 340 420 365 420"/>
  <path class="line" d="M625 190 H715"/>
  <path class="line" d="M625 420 H715"/>
  <path class="line" d="M950 190 C1000 225 1020 260 1040 285"/>
  <path class="line" d="M950 420 C1000 380 1020 335 1040 315"/>
  <text x="315" y="225" class="s">docker compose</text>
  <text x="312" y="392" class="s">optional script</text>
  <text x="647" y="172" class="s">deploy</text>
  <text x="650" y="402" class="s">same API</text>
</svg>
